<?xml version="1.0" standalone="no"?>
<!DOCTYPE svg PUBLIC "-//W3C//DTD SVG 20010904//EN"
 "http://www.w3.org/TR/2001/REC-SVG-20010904/DTD/svg10.dtd">
<svg version="1.0" xmlns="http://www.w3.org/2000/svg"
 width="896.000000pt" height="896.000000pt" viewBox="0 0 896.000000 896.000000"
 preserveAspectRatio="xMidYMid meet">

<g transform="translate(0.000000,896.000000) scale(0.100000,-0.100000)"
fill="#000000" stroke="none">
<path d="M3745 7459 c-500 -51 -997 -214 -1415 -462 -592 -351 -1083 -888
-1366 -1494 -76 -163 -77 -166 -119 -277 -291 -785 -284 -1690 21 -2459 179
-453 422 -823 764 -1168 234 -235 433 -394 680 -541 1065 -636 2402 -650 3465
-38 409 235 796 573 1061 925 426 565 664 1232 691 1934 l6 163 -89 -46 c-127
-67 -171 -76 -360 -76 -183 0 -222 8 -349 74 -44 22 -83 42 -87 44 -3 2 -9
-25 -12 -60 -3 -35 -10 -117 -16 -183 -59 -649 -372 -1272 -848 -1687 -203
-178 -346 -274 -567 -382 -379 -186 -717 -266 -1126 -266 -304 0 -523 35 -812
131 -385 127 -706 327 -997 619 -218 218 -358 414 -491 685 -115 237 -185 454
-231 720 -30 176 -33 596 -5 775 65 416 227 802 477 1135 252 337 566 597 945
785 182 90 303 136 484 186 225 62 466 94 704 94 l127 0 0 440 0 440 -227 -1
c-126 -1 -264 -5 -308 -10z"/>
<path d="M5985 5199 c-4 -6 -5 -12 -2 -15 2 -3 7 2 10 11 7 17 1 20 -8 4z"/>
</g>
</svg>
